<svg width="22" height="24" viewBox="0 0 22 24" fill="none" xmlns="http://www.w3.org/2000/svg">
<g id="Group 4001">
<path id="Path 4481" d="M10.9296 0C10.9865 0.0270386 11.0425 0.0559387 11.1005 0.0808411C11.4972 0.250641 11.7229 0.52951 11.7383 0.930328C11.7499 1.23227 11.7477 1.535 11.7406 1.83713C11.7377 1.96573 11.7795 2.01978 11.9291 2.04431C15.0377 2.55643 17.3551 4.58438 17.9972 7.38205C18.1066 7.85846 18.13 8.35571 18.1443 8.84451C18.1738 9.86417 18.1221 10.8874 18.1918 11.9041C18.3112 13.6429 19.1354 15.094 20.564 16.2565C20.976 16.5917 21.2921 16.9658 21.3413 17.4796C21.4388 18.4992 20.6574 19.3022 19.5236 19.3575C19.4569 19.3607 19.3901 19.3599 19.3234 19.3599C13.5607 19.36 7.79749 19.3587 2.03479 19.3618C1.36976 19.3622 0.806767 19.1767 0.390385 18.6918C-0.230098 17.9691 -0.100704 16.9775 0.705693 16.3363C1.41016 15.7764 1.98377 15.1262 2.41297 14.372C2.95874 13.4135 3.20667 12.3905 3.20862 11.3154C3.21033 10.3858 3.19666 9.45578 3.2157 8.52637C3.2815 5.34396 5.9198 2.5737 9.38074 2.05121C9.57752 2.02151 9.63099 1.95712 9.61878 1.79141C9.60547 1.61081 9.63172 1.4274 9.61292 1.24765C9.54993 0.648071 9.79871 0.223389 10.4291 0H10.9296Z" fill="#F83D5B"/>
<path id="Path 4482" d="M10.2717 23.2275C9.83167 23.0795 9.36511 22.9831 8.95691 22.7731C8.00647 22.2844 7.42407 21.4785 7.151 20.448C7.14343 20.4195 7.14441 20.3888 7.13965 20.3413H14.2245C14.1456 20.7796 13.9768 21.1786 13.7358 21.5449C13.1304 22.4653 12.2848 23.0204 11.191 23.1888C11.1556 23.1943 11.1224 23.2144 11.0883 23.2275H10.2717Z" fill="#F83D5B"/>
</g>
</svg>
